<svg xmlns="http://www.w3.org/2000/svg" xmlns:xlink="http://www.w3.org/1999/xlink" width="380" zoomAndPan="magnify" viewBox="0 0 285 209.999996" height="280" preserveAspectRatio="xMidYMid meet" version="1.0"><defs><clipPath id="692e2a85c6"><path d="M 1 57.617188 L 284 57.617188 L 284 145 L 1 145 Z M 1 57.617188 " clip-rule="nonzero"/></clipPath></defs><g clip-path="url(#692e2a85c6)"><path fill="#7a3d34" d="M 282.808594 74.5 C 282.808594 74.5 273.1875 111.695312 246.121094 97.289062 C 225.863281 86.542969 208.757812 58.292969 182.3125 57.957031 C 157.550781 57.617188 144.046875 78.832031 142.472656 81.476562 C 140.894531 78.832031 127.390625 57.617188 102.632812 57.957031 C 76.1875 58.292969 59.082031 86.542969 38.824219 97.289062 C 11.757812 111.695312 2.136719 74.5 2.136719 74.5 C 0.503906 91.378906 3.429688 133.808594 54.015625 142.246094 C 114.28125 152.375 140.222656 116.984375 142.472656 113.71875 C 144.722656 116.984375 170.664062 152.320312 230.925781 142.246094 C 281.515625 133.808594 284.496094 91.324219 282.808594 74.5 Z M 282.808594 74.5 " fill-opacity="1" fill-rule="nonzero"/></g></svg>